<mxfile host="app.diagrams.net" modified="2024-02-19T04:24:17.723Z" agent="Mozilla/5.0 (X11; CrOS x86_64 14541.0.0) AppleWebKit/537.36 (KHTML, like Gecko) Chrome/121.0.0.0 Safari/537.36" version="23.1.2" etag="qAXrBEyxoUopJUOZpy3o" type="github">
  <diagram name="Page-1" id="-WPyiirFLrl15-gpXMXU">
    <mxGraphModel>
      <root>
        <mxCell id="0" />
        <mxCell id="1" parent="0" />
      </root>
    </mxGraphModel>
  </diagram>
</mxfile>
